<?xml version="1.0" encoding="UTF-8" standalone="no"?>
<svg width="80px" height="120px" viewBox="0 0 80 120" version="1.1" xmlns="http://www.w3.org/2000/svg" xmlns:xlink="http://www.w3.org/1999/xlink" xmlns:sketch="http://www.bohemiancoding.com/sketch/ns">
    <!-- Generator: Sketch 3.4.4 (17249) - http://www.bohemiancoding.com/sketch -->
    <title>proton-icons</title>
    <desc>Created with Sketch.</desc>
    <defs></defs>
    <g id="Proton-assets" stroke="none" stroke-width="1" fill="none" fill-rule="evenodd" sketch:type="MSPage">
        <g id="proton-icons" sketch:type="MSArtboardGroup">
            <g id="Close-hover" sketch:type="MSLayerGroup" transform="translate(52.000000, 12.000000)" stroke="#B9BDE7" stroke-width="2" stroke-linecap="square">
                <path d="M0,16 L16,0" id="Line-1-Copy" sketch:type="MSShapeGroup"></path>
                <path d="M0,0 L16,16" id="Line-2-Copy" sketch:type="MSShapeGroup"></path>
            </g>
            <g id="Close" sketch:type="MSLayerGroup" transform="translate(12.000000, 12.000000)" stroke="#514B82" stroke-width="2" stroke-linecap="square">
                <path d="M0,16 L16,0" id="Line-1" sketch:type="MSShapeGroup"></path>
                <path d="M0,0 L16,16" id="Line-2" sketch:type="MSShapeGroup"></path>
            </g>
            <g id="Reload" sketch:type="MSLayerGroup" transform="translate(11.000000, 49.000000)">
                <path d="M13,10 L13,2 L20,6 L13,10 Z" id="Arrow-1-Copy" fill="#514B82" sketch:type="MSShapeGroup" transform="translate(16.500000, 6.000000) rotate(-315.000000) translate(-16.500000, -6.000000) "></path>
                <path d="M15.5033779,4.77855941 C13.864925,3.06632906 11.5569897,2 9,2 C4.02943725,2 0,6.02943725 0,11 C0,15.9705627 4.02943725,20 9,20 L9,20 C13.9705627,20 18,15.9705627 18,11" id="Oval-3" stroke="#514B82" stroke-width="2" sketch:type="MSShapeGroup"></path>
            </g>
            <g id="Reload-hover" sketch:type="MSLayerGroup" transform="translate(51.000000, 49.000000)">
                <path d="M13,10 L13,2 L20,6 L13,10 Z" id="Arrow-1-Copy" fill="#B9BDE7" sketch:type="MSShapeGroup" transform="translate(16.500000, 6.000000) rotate(-315.000000) translate(-16.500000, -6.000000) "></path>
                <path d="M15.5033779,4.77855941 C13.864925,3.06632906 11.5569897,2 9,2 C4.02943725,2 0,6.02943725 0,11 C0,15.9705627 4.02943725,20 9,20 L9,20 C13.9705627,20 18,15.9705627 18,11" id="Oval-3" stroke="#B9BDE7" stroke-width="2" sketch:type="MSShapeGroup"></path>
            </g>
            <path d="M14.3431458,96.3431455 L28.4852807,93.5147184 L25.6568541,107.656854 L11.5147187,110.485281 L14.3431458,96.3431455 Z" id="Rectangle-1-Copy-2" stroke="#FFFFFF" stroke-width="2" fill="#B9BDE7" sketch:type="MSShapeGroup" transform="translate(20.000000, 102.000000) rotate(-315.000000) translate(-20.000000, -102.000000) "></path>
            <path d="M14.3431458,92.3431455 L28.4852807,89.5147184 L25.6568544,103.656854 L11.5147187,106.485281 L14.3431458,92.3431455 Z" id="Rectangle-1-Copy" stroke="#FFFFFF" stroke-width="2" fill="#B9BDE7" sketch:type="MSShapeGroup" transform="translate(20.000000, 98.000000) rotate(-315.000000) translate(-20.000000, -98.000000) "></path>
            <path d="M54.3431458,96.3431455 L68.4852807,93.5147184 L65.6568541,107.656854 L51.5147187,110.485281 L54.3431458,96.3431455 Z" id="Rectangle-1-Copy-4" stroke="#FFFFFF" stroke-width="2" fill="#514B82" sketch:type="MSShapeGroup" transform="translate(60.000000, 102.000000) rotate(-315.000000) translate(-60.000000, -102.000000) "></path>
            <path d="M54.3431458,92.3431455 L68.4852807,89.5147184 L65.6568544,103.656854 L51.5147187,106.485281 L54.3431458,92.3431455 Z" id="Rectangle-1-Copy-3" stroke="#FFFFFF" stroke-width="2" fill="#514B82" sketch:type="MSShapeGroup" transform="translate(60.000000, 98.000000) rotate(-315.000000) translate(-60.000000, -98.000000) "></path>
        </g>
    </g>
</svg>